<svg width="16" height="16" viewBox="0 0 16 16" fill="none" xmlns="http://www.w3.org/2000/svg">
<path d="M5.3125 9.14062C5.3125 9.05469 5.38281 8.98438 5.46875 8.98438H6.15625C6.24219 8.98438 6.3125 9.05469 6.3125 9.14062V11.8125H11.8594V8.79688C11.8594 6.66563 10.1312 4.9375 8 4.9375C5.86875 4.9375 4.14062 6.66563 4.14062 8.79688V11.8125H5.3125V9.14062Z" fill="#0CD820" fill-opacity="0.15"/>
<path d="M3.38905 4.85156L4.0078 4.23281C4.05623 4.18437 4.05623 4.10469 4.0078 4.05625L2.94686 2.99531C2.92337 2.97205 2.89164 2.959 2.85858 2.959C2.82552 2.959 2.79379 2.97205 2.7703 2.99531L2.15155 3.61406C2.12828 3.63756 2.11523 3.66928 2.11523 3.70234C2.11523 3.73541 2.12828 3.76713 2.15155 3.79063L3.21248 4.85156C3.26092 4.9 3.33905 4.9 3.38905 4.85156ZM13.8515 3.61406L13.2328 2.99531C13.2093 2.97205 13.1776 2.959 13.1445 2.959C13.1115 2.959 13.0797 2.97205 13.0562 2.99531L11.9953 4.05625C11.972 4.07974 11.959 4.11147 11.959 4.14453C11.959 4.17759 11.972 4.20932 11.9953 4.23281L12.614 4.85156C12.6625 4.9 12.7422 4.9 12.7906 4.85156L13.8515 3.79063C13.9 3.74063 13.9 3.6625 13.8515 3.61406ZM7.56248 2.8125H8.43748C8.50623 2.8125 8.56248 2.75625 8.56248 2.6875V1.1875C8.56248 1.11875 8.50623 1.0625 8.43748 1.0625H7.56248C7.49373 1.0625 7.43748 1.11875 7.43748 1.1875V2.6875C7.43748 2.75625 7.49373 2.8125 7.56248 2.8125ZM13 13.9375H2.99998C2.72342 13.9375 2.49998 14.1609 2.49998 14.4375V14.8125C2.49998 14.8813 2.55623 14.9375 2.62498 14.9375H13.375C13.4437 14.9375 13.5 14.8813 13.5 14.8125V14.4375C13.5 14.1609 13.2765 13.9375 13 13.9375ZM3.01561 12.4375C3.01561 12.7141 3.23905 12.9375 3.51561 12.9375H12.4844C12.7609 12.9375 12.9844 12.7141 12.9844 12.4375V8.79688C12.9844 6.04375 10.7531 3.8125 7.99998 3.8125C5.24686 3.8125 3.01561 6.04375 3.01561 8.79688V12.4375ZM4.14061 8.79688C4.14061 6.66563 5.86873 4.9375 7.99998 4.9375C10.1312 4.9375 11.8594 6.66563 11.8594 8.79688V11.8125H6.31248V9.14062C6.31248 9.05469 6.24217 8.98438 6.15623 8.98438H5.46873C5.3828 8.98438 5.31248 9.05469 5.31248 9.14062V11.8125H4.14061V8.79688Z" fill="#0CD820"/>
</svg>
