<svg width="24" height="24" viewBox="0 0 24 24" fill="none" xmlns="http://www.w3.org/2000/svg">
<rect width="24" height="24" rx="4" fill="#DDEDDA"/>
<path fill-rule="evenodd" clip-rule="evenodd" d="M4.14758 6.11429C4.14758 5.98743 4.21044 5.79086 4.48358 5.536C4.75901 5.27886 5.19558 5.01486 5.79558 4.77829C6.98987 4.30857 8.68816 4 10.6024 4C12.5144 4 14.2139 4.30743 15.4082 4.77829C16.0082 5.01486 16.4447 5.27886 16.7202 5.536C16.9944 5.79086 17.0562 5.98743 17.0562 6.11429C17.0562 6.24114 16.9933 6.43771 16.7202 6.69257C16.4459 6.94971 16.0082 7.21371 15.4082 7.45029C14.2139 7.92114 12.5144 8.22743 10.6024 8.22743C8.6893 8.22743 6.98987 7.92114 5.79558 7.45029C5.19558 7.21371 4.75901 6.94857 4.48244 6.69257C4.20816 6.43771 4.14644 6.24114 4.14644 6.11429H4.14758ZM17.2024 8.12571C16.8045 8.38823 16.3791 8.60666 15.9339 8.77714C14.5339 9.33029 12.6493 9.656 10.6036 9.656C8.55787 9.656 6.67216 9.33029 5.27216 8.77714C4.82656 8.60712 4.40081 8.38908 4.00244 8.12686L4.00244 11.0811C4.04816 11.1874 4.1373 11.3177 4.30644 11.472C4.58987 11.7303 5.0413 11.9954 5.65844 12.2331C6.8813 12.704 8.61844 13.0103 10.5727 13.0137C10.6608 12.6987 10.8153 12.4063 11.0259 12.156C11.2365 11.9057 11.4982 11.7035 11.7935 11.5628C12.0887 11.4222 12.4107 11.3464 12.7377 11.3406C13.0647 11.3348 13.3892 11.3991 13.6893 11.5291C13.733 11.1425 13.8747 10.7733 14.101 10.4568C14.3273 10.1402 14.6307 9.8866 14.9824 9.72008C15.3341 9.55355 15.7225 9.47957 16.1108 9.50516C16.4991 9.53074 16.8745 9.65505 17.2013 9.86629V8.12571H17.2024ZM10.6024 14.4423H10.6413C10.7933 14.84 11.0573 15.1989 11.4184 15.464C11.0345 15.7472 10.7487 16.1434 10.6011 16.5972C10.4536 17.0509 10.4516 17.5394 10.5956 17.9943C6.95558 17.992 4.00244 16.7257 4.00244 15.1657V13.0149C4.34301 13.2229 4.7293 13.4069 5.1453 13.5657C6.5773 14.1166 8.5053 14.4423 10.6024 14.4423ZM16.8173 11.7851C16.8173 11.5578 16.727 11.3398 16.5662 11.1791C16.4055 11.0183 16.1875 10.928 15.9602 10.928C15.7328 10.928 15.5148 11.0183 15.3541 11.1791C15.1933 11.3398 15.103 11.5578 15.103 11.7851V12.6309C14.6677 12.7628 14.2687 12.9935 13.9373 13.3051L13.2047 12.8823C13.0077 12.7686 12.7736 12.7379 12.5539 12.7968C12.3342 12.8558 12.147 12.9996 12.0333 13.1966C11.9196 13.3936 11.8889 13.6277 11.9478 13.8474C12.0068 14.0671 12.1506 14.2543 12.3476 14.368L13.079 14.7897C12.9755 15.2333 12.9755 15.6947 13.079 16.1383L12.3476 16.5611C12.25 16.6174 12.1645 16.6924 12.0959 16.7817C12.0273 16.871 11.977 16.973 11.9478 17.0818C11.9186 17.1905 11.9112 17.304 11.9258 17.4157C11.9405 17.5273 11.977 17.635 12.0333 17.7326C12.0896 17.8301 12.1645 17.9156 12.2539 17.9842C12.3432 18.0528 12.4451 18.1031 12.5539 18.1323C12.6627 18.1615 12.7762 18.169 12.8878 18.1543C12.9995 18.1397 13.1072 18.1031 13.2047 18.0469L13.9362 17.624C14.2642 17.9303 14.6619 18.1646 15.103 18.2983V19.1429C15.103 19.3702 15.1933 19.5882 15.3541 19.7489C15.5148 19.9097 15.7328 20 15.9602 20C16.1875 20 16.4055 19.9097 16.5662 19.7489C16.727 19.5882 16.8173 19.3702 16.8173 19.1429V18.2971C17.2584 18.1646 17.6562 17.9314 17.9842 17.6229L18.7167 18.0457C18.9135 18.1576 19.1465 18.1871 19.365 18.1278C19.5834 18.0685 19.7695 17.9252 19.8827 17.7292C19.9959 17.5331 20.0269 17.3003 19.969 17.0815C19.9112 16.8627 19.7691 16.6756 19.5739 16.5611L18.8424 16.1394C18.9461 15.6955 18.9461 15.2336 18.8424 14.7897L19.5739 14.3669C19.7691 14.2524 19.9112 14.0653 19.969 13.8465C20.0269 13.6277 19.9959 13.3949 19.8827 13.1988C19.7695 13.0028 19.5834 12.8595 19.365 12.8002C19.1465 12.7409 18.9135 12.7704 18.7167 12.8823L17.9853 13.3051C17.6531 12.9934 17.2534 12.7626 16.8173 12.6309V11.7851ZM14.8859 14.8411C14.7718 15.0368 14.7136 15.26 14.7174 15.4865C14.7212 15.7129 14.787 15.934 14.9076 16.1257C15.1247 16.4754 15.5133 16.7086 15.9567 16.7086H15.9647C16.1827 16.7078 16.3966 16.6497 16.5851 16.5402C16.7735 16.4307 16.9299 16.2735 17.0384 16.0845C17.147 15.8955 17.204 15.6813 17.2037 15.4633C17.2034 15.2454 17.1457 15.0313 17.0366 14.8426C16.9275 14.654 16.7707 14.4973 16.5819 14.3883C16.3932 14.2793 16.1791 14.2219 15.9611 14.2217C15.7431 14.2216 15.529 14.2787 15.34 14.3874C15.1511 14.4961 14.9953 14.6526 14.8859 14.8411Z" fill="#1EBA05"/>
</svg>
