<svg width="16" height="16" viewBox="0 0 16 16" fill="none" xmlns="http://www.w3.org/2000/svg">
<path d="M4.66654 7.99996C4.66654 8.35358 4.52607 8.69272 4.27602 8.94277C4.02597 9.19282 3.68683 9.33329 3.33321 9.33329C2.97959 9.33329 2.64045 9.19282 2.3904 8.94277C2.14035 8.69272 1.99988 8.35358 1.99988 7.99996C1.99988 7.64634 2.14035 7.3072 2.3904 7.05715C2.64045 6.8071 2.97959 6.66663 3.33321 6.66663C3.68683 6.66663 4.02597 6.8071 4.27602 7.05715C4.52607 7.3072 4.66654 7.64634 4.66654 7.99996ZM13.9999 7.99996C13.9999 8.35358 13.8594 8.69272 13.6094 8.94277C13.3593 9.19282 13.0202 9.33329 12.6665 9.33329C12.3129 9.33329 11.9738 9.19282 11.7237 8.94277C11.4737 8.69272 11.3332 8.35358 11.3332 7.99996C11.3332 7.64634 11.4737 7.3072 11.7237 7.05715C11.9738 6.8071 12.3129 6.66663 12.6665 6.66663C13.0202 6.66663 13.3593 6.8071 13.6094 7.05715C13.8594 7.3072 13.9999 7.64634 13.9999 7.99996Z" fill="#0F172A"/>
<path opacity="0.5" d="M9.33317 7.99996C9.33317 8.35358 9.19269 8.69272 8.94265 8.94277C8.6926 9.19282 8.35346 9.33329 7.99984 9.33329C7.64622 9.33329 7.30708 9.19282 7.05703 8.94277C6.80698 8.69272 6.6665 8.35358 6.6665 7.99996C6.6665 7.64634 6.80698 7.3072 7.05703 7.05715C7.30708 6.8071 7.64622 6.66663 7.99984 6.66663C8.35346 6.66663 8.6926 6.8071 8.94265 7.05715C9.19269 7.3072 9.33317 7.64634 9.33317 7.99996Z" fill="#83838B"/>
</svg>
