<svg width="1445" height="123" viewBox="0 0 1445 123" fill="none" xmlns="http://www.w3.org/2000/svg">
<g clip-path="url(#clip0_60_3787)">
<mask id="mask0_60_3787" style="mask-type:alpha" maskUnits="userSpaceOnUse" x="0" y="0" width="1440" height="1080">
<rect width="1440" height="1080" fill="#FFFFFE"/>
</mask>
<g mask="url(#mask0_60_3787)">
<path d="M845 0.000488281V-0.999512H846H954C1014.2 -0.999512 1063 47.8015 1063 108C1063 168.2 1014.2 217 954 217C893.801 217 845 168.2 845 108V0.000488281Z" fill="#BBFFC2" stroke="white" stroke-width="2"/>
<path d="M910.583 129.166C946.251 129.166 975.166 100.251 975.166 64.5831C975.166 28.9149 946.251 0.000183105 910.583 0.000183105H846V64.5831C846 100.251 874.915 129.166 910.583 129.166Z" fill="#2D374C"/>
<path d="M1020.94 109.086C1020.94 146.056 990.97 176.026 954 176.026C917.03 176.026 887.06 146.056 887.06 109.086C887.06 72.1164 917.03 42.1465 954 42.1465C990.97 42.1465 1020.94 72.1164 1020.94 109.086Z" fill="#009EED" stroke="white" stroke-width="2"/>
<path d="M954 147.687C975.318 147.687 992.6 130.404 992.6 109.086C992.6 87.7676 975.318 70.4855 954 70.4855C932.682 70.4855 915.399 87.7676 915.399 109.086C915.399 130.404 932.682 147.687 954 147.687Z" fill="#2D374C"/>
<path d="M1063 217H1062V216V108.543C1062 48.0444 1111.04 -0.999512 1171.54 -0.999512L1279 -0.999512L1280 -0.999512V0.000488281V107.458C1280 167.957 1230.96 217 1170.46 217L1063 217Z" fill="#009EED" stroke="white" stroke-width="2"/>
<path d="M1109.67 108C1109.67 143.069 1138.1 171.498 1173.17 171.498C1208.24 171.498 1236.67 143.069 1236.67 108V44.5029L1173.17 44.5029C1138.1 44.5029 1109.67 72.9317 1109.67 108Z" fill="#2D374C"/>
<path d="M1063 217.543H1062V216.543V173.343C1062 137.003 1091.46 107.543 1127.8 107.543H1171H1172V108.543V151.743C1172 188.083 1142.54 217.543 1106.2 217.543H1063Z" fill="#FBBB00" stroke="white" stroke-width="2"/>
<path d="M1492 108.543V216L1384.54 216C1324.6 216 1276 167.404 1276 107.458V0.000488281L1383.46 0.000488281C1443.4 0.000488281 1492 48.5967 1492 108.543Z" fill="#00D663"/>
<path d="M1445.33 108C1445.33 143.069 1416.9 171.498 1381.83 171.498C1346.76 171.498 1318.33 143.069 1318.33 108V44.5029L1381.83 44.5029C1416.9 44.5029 1445.33 72.9317 1445.33 108Z" fill="#2D374C"/>
<path d="M1492 217.543H1493V216.543V173.343C1493 137.003 1463.54 107.543 1427.2 107.543H1384H1383V108.543V151.743C1383 188.083 1412.46 217.543 1448.8 217.543H1492Z" fill="#FBBB00" stroke="white" stroke-width="2"/>
<path d="M648 0.000488281V216H432C432 96.707 528.706 0.000488281 648 0.000488281Z" fill="#00D663"/>
<path d="M649 93.4058V92.4058H648C579.576 92.4058 524.103 147.739 524.103 216V217H525.103H648H649V216V93.4058Z" fill="#BBFFC2" stroke="white" stroke-width="2"/>
<path d="M648 0.000488281V216H864C864 96.707 767.294 0.000488281 648 0.000488281Z" fill="#00D663"/>
<path d="M647 93.4058V92.4058H648C716.424 92.4058 771.897 147.739 771.897 216V217H770.897H648H647V216V93.4058Z" fill="#BBFFC2" stroke="white" stroke-width="2"/>
<path d="M217.54 108C217.54 47.8014 168.739 -0.999512 108.54 -0.999512C48.3409 -0.999512 -0.460022 47.8014 -0.460022 108C-0.460022 168.2 48.3409 217 108.54 217C168.739 217 217.54 168.2 217.54 108Z" fill="#009EED" stroke="white" stroke-width="2"/>
<path d="M175.083 108.531C175.083 72.0737 145.528 42.519 109.071 42.519C72.6132 42.519 43.0585 72.0737 43.0585 108.531C43.0585 144.989 72.6132 174.544 109.071 174.544C145.528 174.544 175.083 144.989 175.083 108.531Z" fill="#BBFFC2" stroke="white" stroke-width="2"/>
<path d="M110.132 74.8311C129.33 74.8311 144.894 90.3944 144.894 109.593C144.894 128.791 129.33 144.354 110.132 144.354C90.9338 144.354 75.3704 128.791 75.3704 109.593C75.3704 90.3944 90.9338 74.8311 110.132 74.8311Z" fill="#2D374C"/>
<path d="M246.54 54.9146L246.54 186.001L115.454 186.001C115.454 113.604 174.143 54.9146 246.54 54.9146Z" fill="#00D663"/>
<path d="M215.54 52.5318C215.54 82.3945 239.749 106.603 269.611 106.603C299.474 106.603 323.683 82.3945 323.683 52.5318C323.683 22.669 299.474 -1.53948 269.611 -1.53948C239.749 -1.53948 215.54 22.669 215.54 52.5318Z" fill="#FBBB00" stroke="white" stroke-width="2"/>
<path d="M269.611 215.46C240.301 215.46 216.54 191.7 216.54 162.389C216.54 133.079 240.301 109.318 269.611 109.318C298.922 109.318 322.683 133.079 322.683 162.389C322.683 191.7 298.922 215.46 269.611 215.46Z" fill="#00D663"/>
<path d="M377.346 105.603C348.035 105.603 324.275 81.8422 324.275 52.5318C324.275 23.2213 348.035 -0.539482 377.346 -0.539482C406.656 -0.539482 430.417 23.2213 430.417 52.5318C430.417 81.8422 406.656 105.603 377.346 105.603Z" fill="#00D663"/>
<path d="M432.54 216.46H433.54V215.46V161.062C433.54 130.467 408.737 105.664 378.142 105.664C347.546 105.664 322.744 130.467 322.744 161.062C322.744 191.658 347.546 216.46 378.142 216.46H432.54Z" fill="#009EED" stroke="white" stroke-width="2"/>
</g>
</g>
<defs>
<clipPath id="clip0_60_3787">
<rect width="1445" height="183" fill="white"/>
</clipPath>
</defs>
</svg>
