<svg width="40" height="40" viewBox="0 0 40 40" fill="none" xmlns="http://www.w3.org/2000/svg">
<rect width="40" height="40" rx="9.35673" fill="#00AE50"/>
<path d="M23.2083 29.6146L23.1804 29.5677L23.1493 29.6125C22.613 30.3851 21.862 31.0011 21.0483 31.2983C20.2352 31.5953 19.3604 31.574 18.5713 31.0744C17.8721 30.6317 17.3259 30.1104 17.0596 29.6159L17.0226 29.5471L16.9957 29.6204C16.7991 30.1554 16.6078 30.5355 16.256 30.8226C15.8341 31.1671 15.3186 31.3184 14.7678 31.3831C14.3284 31.4347 13.8696 31.431 13.4201 31.4273C13.3055 31.4264 13.1914 31.4255 13.0784 31.4255C11.107 31.4255 9.50879 29.8273 9.50879 27.8559V18.3782C9.50879 12.5754 14.2128 7.87141 20.0156 7.87141C25.8183 7.87141 30.5223 12.5755 30.5223 18.3782V28.7562C30.5223 30.2304 29.3272 31.4255 27.853 31.4255H26.3955C25.0883 31.4255 23.8775 30.7375 23.2083 29.6146Z" fill="white" stroke="white" stroke-width="0.0703107"/>
<ellipse cx="20.0156" cy="16.4845" rx="2.81243" ry="2.81243" fill="#00AE50"/>
<path d="M25.6403 20.7031C25.6403 21.4418 25.4948 22.1732 25.2122 22.8556C24.9295 23.5381 24.5152 24.1582 23.9929 24.6805C23.4705 25.2028 22.8505 25.6171 22.168 25.8998C21.4856 26.1825 20.7541 26.328 20.0155 26.328C19.2768 26.328 18.5454 26.1825 17.8629 25.8998C17.1805 25.6171 16.5604 25.2028 16.0381 24.6805C15.5158 24.1582 15.1015 23.5381 14.8188 22.8556C14.5361 22.1732 14.3906 21.4418 14.3906 20.7031H16.9575C16.9575 21.1047 17.0366 21.5023 17.1903 21.8734C17.3439 22.2444 17.5692 22.5815 17.8532 22.8654C18.1371 23.1494 18.4742 23.3746 18.8452 23.5283C19.2163 23.682 19.6139 23.7611 20.0155 23.7611C20.4171 23.7611 20.8147 23.682 21.1857 23.5283C21.5567 23.3746 21.8939 23.1494 22.1778 22.8654C22.4618 22.5815 22.687 22.2444 22.8407 21.8734C22.9944 21.5023 23.0735 21.1047 23.0735 20.7031H25.6403Z" fill="#00AE50"/>
</svg>
