<svg width="32" height="32" viewBox="0 0 32 32" fill="none" xmlns="http://www.w3.org/2000/svg">
<path d="M12 22.6667V24C12 24.5253 12.1035 25.0454 12.3045 25.5307C12.5055 26.016 12.8001 26.457 13.1716 26.8284C13.543 27.1999 13.984 27.4945 14.4693 27.6955C14.9546 27.8965 15.4747 28 16 28C16.5253 28 17.0454 27.8965 17.5307 27.6955C18.016 27.4945 18.457 27.1999 18.8284 26.8284C19.1999 26.457 19.4945 26.016 19.6955 25.5307C19.8965 25.0454 20 24.5253 20 24V22.6667M24 12C24 16 26.6667 22.6667 26.6667 22.6667H5.33334C5.33334 22.6667 8.00001 17.3333 8.00001 12C8.00001 7.64266 11.6427 4 16 4C20.3573 4 24 7.64267 24 12Z" stroke="#83838B" stroke-width="1.5" stroke-linecap="round" stroke-linejoin="round"/>
</svg>
