<svg width="32" height="32" viewBox="0 0 32 32" fill="none" xmlns="http://www.w3.org/2000/svg">
<g clip-path="url(#clip0_511_14322)">
<path d="M20.3747 6.66743V6.66757C20.3751 7.57262 20.0949 8.45554 19.5725 9.19465C19.0502 9.93376 18.3115 10.4927 17.4582 10.7943L17.2638 10.8631V11.0693V14.4446V14.7363H17.5554H22.2217C23.382 14.7363 24.4947 15.1972 25.3151 16.0176C26.1355 16.838 26.5964 17.9507 26.5964 19.1109V20.9308V21.1371L26.7909 21.2058C27.7643 21.5498 28.5847 22.2269 29.1071 23.1173C29.6296 24.0077 29.8204 25.0542 29.6459 26.0717C29.4714 27.0892 28.9427 28.0123 28.1534 28.6777C27.3641 29.3432 26.365 29.7081 25.3326 29.7081C24.3002 29.7081 23.3011 29.3432 22.5118 28.6777C21.7225 28.0123 21.1939 27.0892 21.0194 26.0717C20.8449 25.0542 21.0357 24.0077 21.5581 23.1173C22.0806 22.2269 22.901 21.5498 23.8744 21.2058L24.0688 21.1371V20.9308V19.1109C24.0688 18.6211 23.8742 18.1513 23.5278 17.8049C23.1814 17.4585 22.7116 17.2639 22.2217 17.2639H9.77822C9.28834 17.2639 8.81853 17.4585 8.47213 17.8049C8.12574 18.1513 7.93113 18.6211 7.93113 19.1109V20.9308V21.1371L8.12559 21.2058C9.09897 21.5498 9.91939 22.2269 10.4418 23.1173C10.9643 24.0077 11.1551 25.0542 10.9806 26.0717C10.8061 27.0892 10.2774 28.0123 9.48815 28.6777C8.69885 29.3432 7.69972 29.7081 6.66734 29.7081C5.63496 29.7081 4.63582 29.3432 3.84652 28.6777C3.05723 28.0123 2.5286 27.0892 2.35409 26.0717C2.17957 25.0542 2.3704 24.0077 2.89284 23.1173C3.41529 22.2269 4.2357 21.5498 5.20908 21.2058L5.40354 21.1371V20.9308V19.1109C5.40354 17.9507 5.86444 16.838 6.68485 16.0176C7.50527 15.1972 8.61798 14.7363 9.77822 14.7363H14.4445H14.7362V14.4446V11.0693V10.863L14.5416 10.7943C13.785 10.5272 13.1164 10.0572 12.6089 9.43574C12.1013 8.81427 11.7744 8.06522 11.6639 7.27048C11.5534 6.47575 11.6635 5.66593 11.9822 4.92955C12.3008 4.19317 12.8159 3.55858 13.4709 3.09515C14.1259 2.63172 14.8957 2.3573 15.6962 2.30188C16.4966 2.24647 17.2969 2.41219 18.0096 2.78093C18.7222 3.14967 19.3197 3.70724 19.7369 4.39269C20.154 5.07813 20.3746 5.86505 20.3747 6.66743ZM16 4.82033C15.5101 4.82033 15.0403 5.01494 14.6939 5.36133C14.3475 5.70773 14.1529 6.17754 14.1529 6.66742C14.1529 7.1573 14.3475 7.62711 14.6939 7.9735C15.0403 8.3199 15.5101 8.5145 16 8.5145C16.4899 8.5145 16.9597 8.3199 17.3061 7.9735C17.6525 7.62711 17.8471 7.1573 17.8471 6.66742C17.8471 6.17754 17.6525 5.70773 17.3061 5.36133C16.9597 5.01494 16.4899 4.82033 16 4.82033ZM6.66734 23.4856C6.17746 23.4856 5.70765 23.6802 5.36125 24.0266C5.01485 24.373 4.82025 24.8428 4.82025 25.3327C4.82025 25.8226 5.01485 26.2924 5.36125 26.6388C5.70765 26.9852 6.17746 27.1798 6.66734 27.1798C7.15721 27.1798 7.62703 26.9852 7.97342 26.6388C8.31982 26.2924 8.51442 25.8226 8.51442 25.3327C8.51442 24.8428 8.31982 24.373 7.97342 24.0266C7.62703 23.6802 7.15722 23.4856 6.66734 23.4856ZM25.3326 23.4856C24.8427 23.4856 24.3729 23.6802 24.0265 24.0266C23.6801 24.373 23.4855 24.8428 23.4855 25.3327C23.4855 25.8226 23.6801 26.2924 24.0265 26.6388C24.3729 26.9852 24.8427 27.1798 25.3326 27.1798C25.8225 27.1798 26.2923 26.9852 26.6387 26.6388C26.9851 26.2924 27.1797 25.8226 27.1797 25.3327C27.1797 24.8428 26.9851 24.373 26.6387 24.0266C26.2923 23.6802 25.8225 23.4856 25.3326 23.4856Z" fill="#B1B0B9" stroke="white" stroke-width="0.58329"/>
</g>
<defs>
<clipPath id="clip0_511_14322">
<rect width="32" height="32" fill="white"/>
</clipPath>
</defs>
</svg>
