<svg width="32" height="32" viewBox="0 0 32 32" fill="none" xmlns="http://www.w3.org/2000/svg">
<path d="M21.3334 21.3334C21.3334 19.86 17.1547 18.6667 12 18.6667M21.3334 21.3334C21.3334 22.8067 17.1547 24 12 24C6.84537 24 2.66671 22.8067 2.66671 21.3334M21.3334 21.3334V27.916C21.3334 29.4347 17.1547 30.6667 12 30.6667C6.84537 30.6667 2.66671 29.436 2.66671 27.916V21.3334M21.3334 21.3334C26.432 21.3334 30.6667 20.0174 30.6667 18.6667V5.33335M12 18.6667C6.84537 18.6667 2.66671 19.86 2.66671 21.3334M12 18.6667C6.10937 18.6667 1.33337 17.3507 1.33337 16V9.33335M12 6.66669C6.10937 6.66669 1.33337 7.86002 1.33337 9.33335M1.33337 9.33335C1.33337 10.8067 6.10937 12 12 12C12 13.3507 16.3374 14.6667 21.436 14.6667C26.5347 14.6667 30.6667 13.3507 30.6667 12M30.6667 5.33335C30.6667 3.86002 26.5334 2.66669 21.436 2.66669C16.3387 2.66669 12.2054 3.86002 12.2054 5.33335M30.6667 5.33335C30.6667 6.80669 26.5334 8.00002 21.436 8.00002C16.3387 8.00002 12.2054 6.80669 12.2054 5.33335M12.2054 5.33335V18.888" stroke="#83838B"/>
</svg>
