<svg width="16" height="16" viewBox="0 0 16 16" fill="none" xmlns="http://www.w3.org/2000/svg">
<path d="M14.6667 3.33331V4.66665H12.6667V6.66665H11.3333V4.66665H9.33333V3.33331H11.3333V1.33331H12.6667V3.33331H14.6667ZM12.6667 12.6666H3.33333V3.33331H7.33333V1.99998H3.33333C2.6 1.99998 2 2.59998 2 3.33331V12.6666C2 13.4 2.6 14 3.33333 14H12.6667C13.4 14 14 13.4 14 12.6666V8.66665H12.6667V12.6666ZM10 8.66665V11.3333H11.3333V8.66665H10ZM7.33333 11.3333H8.66667V5.99998H7.33333V11.3333ZM6 11.3333V7.33331H4.66667V11.3333H6Z" fill="white"/>
</svg>
